<svg aria-roledescription="flowchart-v2" role="graphics-document document" viewBox="0 0 3463.50390625 1607" style="max-width: 3463.50390625px;" class="flowchart" xmlns:xlink="http://www.w3.org/1999/xlink" xmlns="http://www.w3.org/2000/svg" width="100%" id="mermaid-diagram-mermaid-kkltq7f"><style>#mermaid-diagram-mermaid-kkltq7f{font-family:"trebuchet ms",verdana,arial,sans-serif;font-size:16px;fill:#000000;}@keyframes edge-animation-frame{from{stroke-dashoffset:0;}}@keyframes dash{to{stroke-dashoffset:0;}}#mermaid-diagram-mermaid-kkltq7f .edge-animation-slow{stroke-dasharray:9,5!important;stroke-dashoffset:900;animation:dash 50s linear infinite;stroke-linecap:round;}#mermaid-diagram-mermaid-kkltq7f .edge-animation-fast{stroke-dasharray:9,5!important;stroke-dashoffset:900;animation:dash 20s linear infinite;stroke-linecap:round;}#mermaid-diagram-mermaid-kkltq7f .error-icon{fill:#552222;}#mermaid-diagram-mermaid-kkltq7f .error-text{fill:#552222;stroke:#552222;}#mermaid-diagram-mermaid-kkltq7f .edge-thickness-normal{stroke-width:1px;}#mermaid-diagram-mermaid-kkltq7f .edge-thickness-thick{stroke-width:3.5px;}#mermaid-diagram-mermaid-kkltq7f .edge-pattern-solid{stroke-dasharray:0;}#mermaid-diagram-mermaid-kkltq7f .edge-thickness-invisible{stroke-width:0;fill:none;}#mermaid-diagram-mermaid-kkltq7f .edge-pattern-dashed{stroke-dasharray:3;}#mermaid-diagram-mermaid-kkltq7f .edge-pattern-dotted{stroke-dasharray:2;}#mermaid-diagram-mermaid-kkltq7f .marker{fill:#666;stroke:#666;}#mermaid-diagram-mermaid-kkltq7f .marker.cross{stroke:#666;}#mermaid-diagram-mermaid-kkltq7f svg{font-family:"trebuchet ms",verdana,arial,sans-serif;font-size:16px;}#mermaid-diagram-mermaid-kkltq7f p{margin:0;}#mermaid-diagram-mermaid-kkltq7f .label{font-family:"trebuchet ms",verdana,arial,sans-serif;color:#000000;}#mermaid-diagram-mermaid-kkltq7f .cluster-label text{fill:#333;}#mermaid-diagram-mermaid-kkltq7f .cluster-label span{color:#333;}#mermaid-diagram-mermaid-kkltq7f .cluster-label span p{background-color:transparent;}#mermaid-diagram-mermaid-kkltq7f .label text,#mermaid-diagram-mermaid-kkltq7f span{fill:#000000;color:#000000;}#mermaid-diagram-mermaid-kkltq7f .node rect,#mermaid-diagram-mermaid-kkltq7f .node circle,#mermaid-diagram-mermaid-kkltq7f .node ellipse,#mermaid-diagram-mermaid-kkltq7f .node polygon,#mermaid-diagram-mermaid-kkltq7f .node path{fill:#eee;stroke:#999;stroke-width:1px;}#mermaid-diagram-mermaid-kkltq7f .rough-node .label text,#mermaid-diagram-mermaid-kkltq7f .node .label text,#mermaid-diagram-mermaid-kkltq7f .image-shape .label,#mermaid-diagram-mermaid-kkltq7f .icon-shape .label{text-anchor:middle;}#mermaid-diagram-mermaid-kkltq7f .node .katex path{fill:#000;stroke:#000;stroke-width:1px;}#mermaid-diagram-mermaid-kkltq7f .rough-node .label,#mermaid-diagram-mermaid-kkltq7f .node .label,#mermaid-diagram-mermaid-kkltq7f .image-shape .label,#mermaid-diagram-mermaid-kkltq7f .icon-shape .label{text-align:center;}#mermaid-diagram-mermaid-kkltq7f .node.clickable{cursor:pointer;}#mermaid-diagram-mermaid-kkltq7f .root .anchor path{fill:#666!important;stroke-width:0;stroke:#666;}#mermaid-diagram-mermaid-kkltq7f .arrowheadPath{fill:#333333;}#mermaid-diagram-mermaid-kkltq7f .edgePath .path{stroke:#666;stroke-width:2.0px;}#mermaid-diagram-mermaid-kkltq7f .flowchart-link{stroke:#666;fill:none;}#mermaid-diagram-mermaid-kkltq7f .edgeLabel{background-color:white;text-align:center;}#mermaid-diagram-mermaid-kkltq7f .edgeLabel p{background-color:white;}#mermaid-diagram-mermaid-kkltq7f .edgeLabel rect{opacity:0.5;background-color:white;fill:white;}#mermaid-diagram-mermaid-kkltq7f .labelBkg{background-color:rgba(255, 255, 255, 0.5);}#mermaid-diagram-mermaid-kkltq7f .cluster rect{fill:hsl(0, 0%, 98.9215686275%);stroke:#707070;stroke-width:1px;}#mermaid-diagram-mermaid-kkltq7f .cluster text{fill:#333;}#mermaid-diagram-mermaid-kkltq7f .cluster span{color:#333;}#mermaid-diagram-mermaid-kkltq7f div.mermaidTooltip{position:absolute;text-align:center;max-width:200px;padding:2px;font-family:"trebuchet ms",verdana,arial,sans-serif;font-size:12px;background:hsl(-160, 0%, 93.3333333333%);border:1px solid #707070;border-radius:2px;pointer-events:none;z-index:100;}#mermaid-diagram-mermaid-kkltq7f .flowchartTitleText{text-anchor:middle;font-size:18px;fill:#000000;}#mermaid-diagram-mermaid-kkltq7f rect.text{fill:none;stroke-width:0;}#mermaid-diagram-mermaid-kkltq7f .icon-shape,#mermaid-diagram-mermaid-kkltq7f .image-shape{background-color:white;text-align:center;}#mermaid-diagram-mermaid-kkltq7f .icon-shape p,#mermaid-diagram-mermaid-kkltq7f .image-shape p{background-color:white;padding:2px;}#mermaid-diagram-mermaid-kkltq7f .icon-shape rect,#mermaid-diagram-mermaid-kkltq7f .image-shape rect{opacity:0.5;background-color:white;fill:white;}#mermaid-diagram-mermaid-kkltq7f :root{--mermaid-font-family:"trebuchet ms",verdana,arial,sans-serif;}</style><g><marker orient="auto" markerHeight="8" markerWidth="8" markerUnits="userSpaceOnUse" refY="5" refX="5" viewBox="0 0 10 10" class="marker flowchart-v2" id="mermaid-diagram-mermaid-kkltq7f_flowchart-v2-pointEnd"><path style="stroke-width: 1; stroke-dasharray: 1, 0;" class="arrowMarkerPath" d="M 0 0 L 10 5 L 0 10 z"></path></marker><marker orient="auto" markerHeight="8" markerWidth="8" markerUnits="userSpaceOnUse" refY="5" refX="4.5" viewBox="0 0 10 10" class="marker flowchart-v2" id="mermaid-diagram-mermaid-kkltq7f_flowchart-v2-pointStart"><path style="stroke-width: 1; stroke-dasharray: 1, 0;" class="arrowMarkerPath" d="M 0 5 L 10 10 L 10 0 z"></path></marker><marker orient="auto" markerHeight="11" markerWidth="11" markerUnits="userSpaceOnUse" refY="5" refX="11" viewBox="0 0 10 10" class="marker flowchart-v2" id="mermaid-diagram-mermaid-kkltq7f_flowchart-v2-circleEnd"><circle style="stroke-width: 1; stroke-dasharray: 1, 0;" class="arrowMarkerPath" r="5" cy="5" cx="5"></circle></marker><marker orient="auto" markerHeight="11" markerWidth="11" markerUnits="userSpaceOnUse" refY="5" refX="-1" viewBox="0 0 10 10" class="marker flowchart-v2" id="mermaid-diagram-mermaid-kkltq7f_flowchart-v2-circleStart"><circle style="stroke-width: 1; stroke-dasharray: 1, 0;" class="arrowMarkerPath" r="5" cy="5" cx="5"></circle></marker><marker orient="auto" markerHeight="11" markerWidth="11" markerUnits="userSpaceOnUse" refY="5.2" refX="12" viewBox="0 0 11 11" class="marker cross flowchart-v2" id="mermaid-diagram-mermaid-kkltq7f_flowchart-v2-crossEnd"><path style="stroke-width: 2; stroke-dasharray: 1, 0;" class="arrowMarkerPath" d="M 1,1 l 9,9 M 10,1 l -9,9"></path></marker><marker orient="auto" markerHeight="11" markerWidth="11" markerUnits="userSpaceOnUse" refY="5.2" refX="-1" viewBox="0 0 11 11" class="marker cross flowchart-v2" id="mermaid-diagram-mermaid-kkltq7f_flowchart-v2-crossStart"><path style="stroke-width: 2; stroke-dasharray: 1, 0;" class="arrowMarkerPath" d="M 1,1 l 9,9 M 10,1 l -9,9"></path></marker><g class="root"><g class="clusters"><g data-look="classic" id="Harness" class="cluster"><rect height="257" width="469.46875" y="1037" x="2986.03515625" style="fill:#e8f5e8 !important"></rect><g transform="translate(3120.76953125, 1037)" class="cluster-label"><foreignObject height="48" width="200"><div xmlns="http://www.w3.org/1999/xhtml" style="display: table; white-space: break-spaces; line-height: 1.5; max-width: 200px; text-align: center; width: 200px;"><span class="nodeLabel"><p>Layer 5 — Evaluation Harness (Sentinel Pattern)</p></span></div></foreignObject></g></g><g data-look="classic" id="Repair" class="cluster"><rect height="361" width="1072.75" y="780" x="1893.28515625" style="fill:#fff3e0 !important"></rect><g transform="translate(2329.66015625, 780)" class="cluster-label"><foreignObject height="48" width="200"><div xmlns="http://www.w3.org/1999/xhtml" style="display: table; white-space: break-spaces; line-height: 1.5; max-width: 200px; text-align: center; width: 200px;"><span class="nodeLabel"><p>Layer 4 — Self-Correction Loop</p></span></div></foreignObject></g></g><g data-look="classic" id="DBs" class="cluster"><rect height="643" width="939.5234375" y="651" x="933.76171875" style="fill:#f3e8ff !important"></rect><g transform="translate(1303.5234375, 651)" class="cluster-label"><foreignObject height="48" width="200"><div xmlns="http://www.w3.org/1999/xhtml" style="display: table; white-space: break-spaces; line-height: 1.5; max-width: 200px; text-align: center; width: 200px;"><span class="nodeLabel"><p>Layer 3 — Heterogeneous Databases via MCP</p></span></div></foreignObject></g></g><g data-look="classic" id="Conductor" class="cluster"><rect height="232" width="682.796875" y="369" x="1022.1796875" style="fill:#f0f4ff !important"></rect><g transform="translate(1263.578125, 369)" class="cluster-label"><foreignObject height="48" width="200"><div xmlns="http://www.w3.org/1999/xhtml" style="display: table; white-space: break-spaces; line-height: 1.5; max-width: 200px; text-align: center; width: 200px;"><span class="nodeLabel"><p>Layer 2 — Conductor Agent (Planner + Router)</p></span></div></foreignObject></g></g><g data-look="classic" id="Context" class="cluster"><rect height="1383" width="898.1640625" y="216" x="8" style="fill:#e3f2fd !important"></rect><g transform="translate(357.08203125, 216)" class="cluster-label"><foreignObject height="48" width="200"><div xmlns="http://www.w3.org/1999/xhtml" style="display: table; white-space: break-spaces; line-height: 1.5; max-width: 200px; text-align: center; width: 200px;"><span class="nodeLabel"><p>Layer 1 — Context Injection (3 KB Layers)</p></span></div></foreignObject></g></g></g><g class="edgePaths"><path marker-end="url(#mermaid-diagram-mermaid-kkltq7f_flowchart-v2-pointEnd)" style="" class="edge-thickness-normal edge-pattern-solid edge-thickness-normal edge-pattern-solid flowchart-link" id="L_U_Q_0" d="M648,62L648,66.167C648,70.333,648,78.667,648,86.333C648,94,648,101,648,104.5L648,108"></path><path marker-end="url(#mermaid-diagram-mermaid-kkltq7f_flowchart-v2-pointEnd)" style="" class="edge-thickness-normal edge-pattern-solid edge-thickness-normal edge-pattern-solid flowchart-link" id="L_Q_CM_0" d="M648,166L648,170.167C648,174.333,648,182.667,648,191C648,199.333,648,207.667,648,215.333C648,223,648,230,648,233.5L648,237"></path><path marker-end="url(#mermaid-diagram-mermaid-kkltq7f_flowchart-v2-pointEnd)" style="" class="edge-thickness-normal edge-pattern-solid edge-thickness-normal edge-pattern-solid flowchart-link" id="L_CM_KB1_0" d="M518,297.516L460.5,305.263C403,313.011,288,328.505,230.5,340.419C173,352.333,173,360.667,173,368.333C173,376,173,383,173,386.5L173,390"></path><path marker-end="url(#mermaid-diagram-mermaid-kkltq7f_flowchart-v2-pointEnd)" style="" class="edge-thickness-normal edge-pattern-solid edge-thickness-normal edge-pattern-solid flowchart-link" id="L_CM_KB2_0" d="M547.453,319L536.711,323.167C525.969,327.333,504.484,335.667,493.742,344C483,352.333,483,360.667,483,368.333C483,376,483,383,483,386.5L483,390"></path><path marker-end="url(#mermaid-diagram-mermaid-kkltq7f_flowchart-v2-pointEnd)" style="" class="edge-thickness-normal edge-pattern-solid edge-thickness-normal edge-pattern-solid flowchart-link" id="L_CM_KB3_0" d="M648,319L648,323.167C648,327.333,648,335.667,648,344C648,352.333,648,360.667,648,375.5C648,390.333,648,411.667,648,433C648,454.333,648,475.667,648,495C648,514.333,648,531.667,648,549C648,566.333,648,583.667,648,596.5C648,609.333,648,617.667,648,626C648,634.333,648,642.667,648,655.5C648,668.333,648,685.667,648,703C648,720.333,648,737.667,648,750.5C648,763.333,648,771.667,648,784.5C648,797.333,648,814.667,648,832C648,849.333,648,866.667,648,886C648,905.333,648,926.667,648,948C648,969.333,648,990.667,648,1005.5C648,1020.333,648,1028.667,648,1041.5C648,1054.333,648,1071.667,648,1089C648,1106.333,648,1123.667,648,1136.5C648,1149.333,648,1157.667,648,1172.5C648,1187.333,648,1208.667,648,1230C648,1251.333,648,1272.667,648,1287.5C648,1302.333,648,1310.667,648,1325.5C648,1340.333,648,1361.667,648,1385C648,1408.333,648,1433.667,651.847,1451.95C655.693,1470.233,663.387,1481.467,667.234,1487.083L671.08,1492.7"></path><path marker-end="url(#mermaid-diagram-mermaid-kkltq7f_flowchart-v2-pointEnd)" style="" class="edge-thickness-normal edge-pattern-solid edge-thickness-normal edge-pattern-solid flowchart-link" id="L_CM_QR_0" d="M766.257,319L778.891,323.167C791.525,327.333,816.794,335.667,829.428,344C842.063,352.333,842.063,360.667,918.384,373.311C994.706,385.955,1147.35,402.91,1223.671,411.387L1299.993,419.865"></path><path marker-end="url(#mermaid-diagram-mermaid-kkltq7f_flowchart-v2-pointEnd)" style="" class="edge-thickness-normal edge-pattern-solid edge-thickness-normal edge-pattern-solid flowchart-link" id="L_QR_Sub_0" d="M1418.25,460L1418.25,466.167C1418.25,472.333,1418.25,484.667,1418.25,494.333C1418.25,504,1418.25,511,1418.25,514.5L1418.25,518"></path><path marker-end="url(#mermaid-diagram-mermaid-kkltq7f_flowchart-v2-pointEnd)" style="" class="edge-thickness-normal edge-pattern-solid edge-thickness-normal edge-pattern-solid flowchart-link" id="L_Sub_PG_0" d="M1525.538,576L1542.095,580.167C1558.652,584.333,1591.765,592.667,1608.322,601C1624.879,609.333,1624.879,617.667,1624.879,626C1624.879,634.333,1624.879,642.667,1624.879,650.333C1624.879,658,1624.879,665,1624.879,668.5L1624.879,672"></path><path marker-end="url(#mermaid-diagram-mermaid-kkltq7f_flowchart-v2-pointEnd)" style="" class="edge-thickness-normal edge-pattern-solid edge-thickness-normal edge-pattern-solid flowchart-link" id="L_Sub_MG_0" d="M1293.055,568.176L1257.339,573.647C1221.624,579.118,1150.193,590.059,1114.477,599.696C1078.762,609.333,1078.762,617.667,1078.762,626C1078.762,634.333,1078.762,642.667,1078.762,655.5C1078.762,668.333,1078.762,685.667,1078.762,703C1078.762,720.333,1078.762,737.667,1078.762,750.5C1078.762,763.333,1078.762,771.667,1078.762,784.5C1078.762,797.333,1078.762,814.667,1078.762,832C1078.762,849.333,1078.762,866.667,1078.762,886C1078.762,905.333,1078.762,926.667,1078.762,948C1078.762,969.333,1078.762,990.667,1078.762,1005.5C1078.762,1020.333,1078.762,1028.667,1078.762,1041.5C1078.762,1054.333,1078.762,1071.667,1078.762,1089C1078.762,1106.333,1078.762,1123.667,1078.762,1136.5C1078.762,1149.333,1078.762,1157.667,1079.865,1165.364C1080.968,1173.061,1083.175,1180.121,1084.278,1183.652L1085.381,1187.182"></path><path marker-end="url(#mermaid-diagram-mermaid-kkltq7f_flowchart-v2-pointEnd)" style="" class="edge-thickness-normal edge-pattern-solid edge-thickness-normal edge-pattern-solid flowchart-link" id="L_Sub_SL_0" d="M1340.706,576L1328.739,580.167C1316.773,584.333,1292.84,592.667,1280.873,601C1268.906,609.333,1268.906,617.667,1268.906,626C1268.906,634.333,1268.906,642.667,1268.906,655.5C1268.906,668.333,1268.906,685.667,1268.906,703C1268.906,720.333,1268.906,737.667,1268.906,750.5C1268.906,763.333,1268.906,771.667,1268.906,784.5C1268.906,797.333,1268.906,814.667,1268.906,832C1268.906,849.333,1268.906,866.667,1268.906,886C1268.906,905.333,1268.906,926.667,1268.906,948C1268.906,969.333,1268.906,990.667,1268.906,1005.5C1268.906,1020.333,1268.906,1028.667,1268.906,1041.5C1268.906,1054.333,1268.906,1071.667,1268.906,1089C1268.906,1106.333,1268.906,1123.667,1268.906,1136.5C1268.906,1149.333,1268.906,1157.667,1280.695,1167.703C1292.484,1177.739,1316.062,1189.478,1327.851,1195.348L1339.639,1201.217"></path><path marker-end="url(#mermaid-diagram-mermaid-kkltq7f_flowchart-v2-pointEnd)" style="" class="edge-thickness-normal edge-pattern-solid edge-thickness-normal edge-pattern-solid flowchart-link" id="L_Sub_DD_0" d="M1442.437,576L1446.169,580.167C1449.902,584.333,1457.367,592.667,1461.099,601C1464.832,609.333,1464.832,617.667,1464.832,626C1464.832,634.333,1464.832,642.667,1464.832,655.5C1464.832,668.333,1464.832,685.667,1464.832,703C1464.832,720.333,1464.832,737.667,1464.832,750.5C1464.832,763.333,1464.832,771.667,1464.832,784.5C1464.832,797.333,1464.832,814.667,1464.832,832C1464.832,849.333,1464.832,866.667,1464.832,886C1464.832,905.333,1464.832,926.667,1464.832,948C1464.832,969.333,1464.832,990.667,1464.832,1005.5C1464.832,1020.333,1464.832,1028.667,1464.832,1041.5C1464.832,1054.333,1464.832,1071.667,1464.832,1089C1464.832,1106.333,1464.832,1123.667,1464.832,1136.5C1464.832,1149.333,1464.832,1157.667,1485.264,1167.813C1505.695,1177.959,1546.559,1189.918,1566.99,1195.897L1587.422,1201.877"></path><path marker-end="url(#mermaid-diagram-mermaid-kkltq7f_flowchart-v2-pointEnd)" style="" class="edge-thickness-normal edge-pattern-solid edge-thickness-normal edge-pattern-solid flowchart-link" id="L_PG_FD_0" d="M1681.581,730L1690.331,734.167C1699.081,738.333,1716.582,746.667,1725.332,755C1734.082,763.333,1734.082,771.667,1856.4,783.552C1978.717,795.438,2223.353,810.876,2345.671,818.595L2467.988,826.314"></path><path marker-end="url(#mermaid-diagram-mermaid-kkltq7f_flowchart-v2-pointEnd)" style="" class="edge-thickness-normal edge-pattern-solid edge-thickness-normal edge-pattern-solid flowchart-link" id="L_MG_FD_0" d="M1190.256,1191L1200.031,1186.833C1209.806,1182.667,1229.356,1174.333,1361.621,1166C1493.885,1157.667,1738.865,1149.333,1861.354,1136.5C1983.844,1123.667,1983.844,1106.333,1983.844,1089C1983.844,1071.667,1983.844,1054.333,1983.844,1041.5C1983.844,1028.667,1983.844,1020.333,1983.844,1005.5C1983.844,990.667,1983.844,969.333,1983.844,948C1983.844,926.667,1983.844,905.333,2064.536,887.36C2145.228,869.386,2306.612,854.773,2387.305,847.466L2467.997,840.159"></path><path marker-end="url(#mermaid-diagram-mermaid-kkltq7f_flowchart-v2-pointEnd)" style="" class="edge-thickness-normal edge-pattern-solid edge-thickness-normal edge-pattern-solid flowchart-link" id="L_SL_FD_0" d="M1417.439,1203L1422.004,1196.833C1426.57,1190.667,1435.701,1178.333,1634.378,1168C1833.056,1157.667,2221.28,1149.333,2415.392,1136.5C2609.504,1123.667,2609.504,1106.333,2609.504,1089C2609.504,1071.667,2609.504,1054.333,2609.504,1041.5C2609.504,1028.667,2609.504,1020.333,2609.504,1005.5C2609.504,990.667,2609.504,969.333,2609.504,948C2609.504,926.667,2609.504,905.333,2605.854,890.974C2602.203,876.615,2594.902,869.23,2591.252,865.537L2587.602,861.845"></path><path marker-end="url(#mermaid-diagram-mermaid-kkltq7f_flowchart-v2-pointEnd)" style="" class="edge-thickness-normal edge-pattern-solid edge-thickness-normal edge-pattern-solid flowchart-link" id="L_DD_FD_0" d="M1727.215,1203L1737.195,1196.833C1747.175,1190.667,1767.134,1178.333,1966.938,1168C2166.741,1157.667,2546.388,1149.333,2736.212,1136.5C2926.035,1123.667,2926.035,1106.333,2926.035,1089C2926.035,1071.667,2926.035,1054.333,2926.035,1041.5C2926.035,1028.667,2926.035,1020.333,2926.035,1005.5C2926.035,990.667,2926.035,969.333,2926.035,948C2926.035,926.667,2926.035,905.333,2879.725,888.122C2833.415,870.91,2740.795,857.82,2694.485,851.275L2648.175,844.731"></path><path marker-end="url(#mermaid-diagram-mermaid-kkltq7f_flowchart-v2-pointEnd)" style="" class="edge-thickness-normal edge-pattern-solid edge-thickness-normal edge-pattern-solid flowchart-link" id="L_FD_JR_0" d="M2471.98,842.942L2418.124,849.785C2364.268,856.628,2256.556,870.314,2202.7,880.657C2148.844,891,2148.844,898,2148.844,901.5L2148.844,905"></path><path marker-end="url(#mermaid-diagram-mermaid-kkltq7f_flowchart-v2-pointEnd)" style="" class="edge-thickness-normal edge-pattern-solid edge-thickness-normal edge-pattern-solid flowchart-link" id="L_FD_TE_0" d="M2502.015,859L2493.36,863.167C2484.705,867.333,2467.396,875.667,2458.741,885.333C2450.086,895,2450.086,906,2450.086,911.5L2450.086,917"></path><path marker-end="url(#mermaid-diagram-mermaid-kkltq7f_flowchart-v2-pointEnd)" style="" class="edge-thickness-normal edge-pattern-solid edge-thickness-normal edge-pattern-solid flowchart-link" id="L_FD_RM_0" d="M2644.215,853.358L2664.807,858.465C2685.4,863.572,2726.585,873.786,2747.177,884.393C2767.77,895,2767.77,906,2767.77,911.5L2767.77,917"></path><path marker-end="url(#mermaid-diagram-mermaid-kkltq7f_flowchart-v2-pointEnd)" style="" class="edge-thickness-normal edge-pattern-solid edge-thickness-normal edge-pattern-solid flowchart-link" id="L_JR_Retry_0" d="M2148.844,987L2148.844,991.167C2148.844,995.333,2148.844,1003.667,2148.844,1012C2148.844,1020.333,2148.844,1028.667,2159.433,1036.768C2170.022,1044.869,2191.201,1052.738,2201.79,1056.672L2212.379,1060.607"></path><path marker-end="url(#mermaid-diagram-mermaid-kkltq7f_flowchart-v2-pointEnd)" style="" class="edge-thickness-normal edge-pattern-solid edge-thickness-normal edge-pattern-solid flowchart-link" id="L_TE_Retry_0" d="M2450.086,975L2450.086,981.167C2450.086,987.333,2450.086,999.667,2450.086,1010C2450.086,1020.333,2450.086,1028.667,2437.797,1036.795C2425.507,1044.924,2400.929,1052.848,2388.639,1056.811L2376.35,1060.773"></path><path marker-end="url(#mermaid-diagram-mermaid-kkltq7f_flowchart-v2-pointEnd)" style="" class="edge-thickness-normal edge-pattern-solid edge-thickness-normal edge-pattern-solid flowchart-link" id="L_RM_Retry_0" d="M2666.704,975L2643.621,981.167C2620.538,987.333,2574.373,999.667,2551.29,1010C2528.207,1020.333,2528.207,1028.667,2506.889,1037.464C2485.571,1046.261,2442.935,1055.521,2421.617,1060.151L2400.299,1064.782"></path><path marker-end="url(#mermaid-diagram-mermaid-kkltq7f_flowchart-v2-pointEnd)" style="" class="edge-thickness-normal edge-pattern-solid edge-thickness-normal edge-pattern-solid flowchart-link" id="L_Retry_PG_0" d="M2181.203,1081.377L2076.812,1073.981C1972.421,1066.585,1763.638,1051.792,1659.247,1040.229C1554.855,1028.667,1554.855,1020.333,1554.855,1005.5C1554.855,990.667,1554.855,969.333,1554.855,948C1554.855,926.667,1554.855,905.333,1554.855,886C1554.855,866.667,1554.855,849.333,1554.855,832C1554.855,814.667,1554.855,797.333,1554.855,784.5C1554.855,771.667,1554.855,763.333,1559.931,755.397C1565.007,747.462,1575.158,739.923,1580.234,736.154L1585.309,732.385"></path><path marker-end="url(#mermaid-diagram-mermaid-kkltq7f_flowchart-v2-pointEnd)" style="" class="edge-thickness-normal edge-pattern-solid edge-thickness-normal edge-pattern-solid flowchart-link" id="L_Retry_MG_0" d="M2181.203,1106.217L2144.977,1112.015C2108.75,1117.812,2036.297,1129.406,1860.454,1139.37C1684.611,1149.333,1405.378,1157.667,1264.241,1165.387C1123.104,1173.107,1120.063,1180.215,1118.542,1183.769L1117.022,1187.322"></path><path marker-end="url(#mermaid-diagram-mermaid-kkltq7f_flowchart-v2-pointEnd)" style="" class="edge-thickness-normal edge-pattern-solid edge-thickness-normal edge-pattern-solid flowchart-link" id="L_Retry_SL_0" d="M2288.797,1116L2288.797,1120.167C2288.797,1124.333,2288.797,1132.667,2140.239,1141C1991.681,1149.333,1694.565,1157.667,1546.007,1167.333C1397.449,1177,1397.449,1188,1397.449,1193.5L1397.449,1199"></path><path marker-end="url(#mermaid-diagram-mermaid-kkltq7f_flowchart-v2-pointEnd)" style="" class="edge-thickness-normal edge-pattern-solid edge-thickness-normal edge-pattern-solid flowchart-link" id="L_Retry_DD_0" d="M2396.391,1100.681L2458.287,1107.401C2520.184,1114.121,2643.977,1127.56,2525.165,1138.447C2406.353,1149.333,2044.936,1157.667,1864.228,1167.333C1683.52,1177,1683.52,1188,1683.52,1193.5L1683.52,1199"></path><path marker-end="url(#mermaid-diagram-mermaid-kkltq7f_flowchart-v2-pointEnd)" style="" class="edge-thickness-normal edge-pattern-solid edge-thickness-normal edge-pattern-solid flowchart-link" id="L_RM_TL_0" d="M2842.975,975L2860.152,981.167C2877.329,987.333,2911.682,999.667,2928.859,1010C2946.035,1020.333,2946.035,1028.667,2982.379,1039.161C3018.723,1049.654,3091.411,1062.309,3127.754,1068.636L3164.098,1074.963"></path><path marker-end="url(#mermaid-diagram-mermaid-kkltq7f_flowchart-v2-pointEnd)" style="" class="edge-thickness-normal edge-pattern-solid edge-thickness-normal edge-pattern-solid flowchart-link" id="L_TL_SC_0" d="M3172.511,1116L3161.366,1120.167C3150.222,1124.333,3127.933,1132.667,3116.789,1141C3105.645,1149.333,3105.645,1157.667,3105.645,1167.333C3105.645,1177,3105.645,1188,3105.645,1193.5L3105.645,1199"></path><path marker-end="url(#mermaid-diagram-mermaid-kkltq7f_flowchart-v2-pointEnd)" style="" class="edge-thickness-normal edge-pattern-solid edge-thickness-normal edge-pattern-solid flowchart-link" id="L_TL_RS_0" d="M3289.2,1116L3296.063,1120.167C3302.926,1124.333,3316.653,1132.667,3323.516,1141C3330.379,1149.333,3330.379,1157.667,3330.379,1167.333C3330.379,1177,3330.379,1188,3330.379,1193.5L3330.379,1199"></path><path marker-end="url(#mermaid-diagram-mermaid-kkltq7f_flowchart-v2-pointEnd)" style="" class="edge-thickness-normal edge-pattern-solid edge-thickness-normal edge-pattern-solid flowchart-link" id="L_SC_Output_0" d="M3105.645,1257L3105.645,1263.167C3105.645,1269.333,3105.645,1281.667,3105.645,1292C3105.645,1302.333,3105.645,1310.667,3105.645,1318.333C3105.645,1326,3105.645,1333,3105.645,1336.5L3105.645,1340"></path><path marker-end="url(#mermaid-diagram-mermaid-kkltq7f_flowchart-v2-pointEnd)" style="" class="edge-thickness-normal edge-pattern-dotted edge-thickness-normal edge-pattern-solid flowchart-link" id="L_Output_KB3_0" d="M2975.645,1387.168L2602.209,1399.14C2228.773,1411.112,1481.902,1435.056,1105.907,1452.589C729.912,1470.122,724.793,1481.244,722.233,1486.805L719.674,1492.366"></path><path marker-end="url(#mermaid-diagram-mermaid-kkltq7f_flowchart-v2-pointEnd)" style="" class="edge-thickness-normal edge-pattern-solid edge-thickness-normal edge-pattern-solid flowchart-link" id="L_KB3_CM_0" d="M762.662,1496L772.562,1489.833C782.462,1483.667,802.262,1471.333,812.162,1452.5C822.063,1433.667,822.063,1408.333,822.063,1385C822.063,1361.667,822.063,1340.333,822.063,1325.5C822.063,1310.667,822.063,1302.333,822.063,1287.5C822.063,1272.667,822.063,1251.333,822.063,1230C822.063,1208.667,822.063,1187.333,822.063,1172.5C822.063,1157.667,822.063,1149.333,822.063,1136.5C822.063,1123.667,822.063,1106.333,822.063,1089C822.063,1071.667,822.063,1054.333,822.063,1041.5C822.063,1028.667,822.063,1020.333,822.063,1005.5C822.063,990.667,822.063,969.333,822.063,948C822.063,926.667,822.063,905.333,822.063,886C822.063,866.667,822.063,849.333,822.063,832C822.063,814.667,822.063,797.333,822.063,784.5C822.063,771.667,822.063,763.333,822.063,750.5C822.063,737.667,822.063,720.333,822.063,703C822.063,685.667,822.063,668.333,822.063,655.5C822.063,642.667,822.063,634.333,822.063,626C822.063,617.667,822.063,609.333,822.063,596.5C822.063,583.667,822.063,566.333,822.063,549C822.063,531.667,822.063,514.333,822.063,495C822.063,475.667,822.063,454.333,822.063,433C822.063,411.667,822.063,390.333,822.063,375.5C822.063,360.667,822.063,352.333,811.356,344.23C800.65,336.127,779.237,328.254,768.53,324.317L757.824,320.38"></path></g><g class="edgeLabels"><g class="edgeLabel"><g transform="translate(0, 0)" class="label"><foreignObject height="0" width="0"><div class="labelBkg" xmlns="http://www.w3.org/1999/xhtml" style="display: table-cell; white-space: nowrap; line-height: 1.5; max-width: 200px; text-align: center;"><span class="edgeLabel"></span></div></foreignObject></g></g><g class="edgeLabel"><g transform="translate(0, 0)" class="label"><foreignObject height="0" width="0"><div class="labelBkg" xmlns="http://www.w3.org/1999/xhtml" style="display: table-cell; white-space: nowrap; line-height: 1.5; max-width: 200px; text-align: center;"><span class="edgeLabel"></span></div></foreignObject></g></g><g class="edgeLabel"><g transform="translate(0, 0)" class="label"><foreignObject height="0" width="0"><div class="labelBkg" xmlns="http://www.w3.org/1999/xhtml" style="display: table-cell; white-space: nowrap; line-height: 1.5; max-width: 200px; text-align: center;"><span class="edgeLabel"></span></div></foreignObject></g></g><g class="edgeLabel"><g transform="translate(0, 0)" class="label"><foreignObject height="0" width="0"><div class="labelBkg" xmlns="http://www.w3.org/1999/xhtml" style="display: table-cell; white-space: nowrap; line-height: 1.5; max-width: 200px; text-align: center;"><span class="edgeLabel"></span></div></foreignObject></g></g><g class="edgeLabel"><g transform="translate(0, 0)" class="label"><foreignObject height="0" width="0"><div class="labelBkg" xmlns="http://www.w3.org/1999/xhtml" style="display: table-cell; white-space: nowrap; line-height: 1.5; max-width: 200px; text-align: center;"><span class="edgeLabel"></span></div></foreignObject></g></g><g class="edgeLabel"><g transform="translate(0, 0)" class="label"><foreignObject height="0" width="0"><div class="labelBkg" xmlns="http://www.w3.org/1999/xhtml" style="display: table-cell; white-space: nowrap; line-height: 1.5; max-width: 200px; text-align: center;"><span class="edgeLabel"></span></div></foreignObject></g></g><g class="edgeLabel"><g transform="translate(0, 0)" class="label"><foreignObject height="0" width="0"><div class="labelBkg" xmlns="http://www.w3.org/1999/xhtml" style="display: table-cell; white-space: nowrap; line-height: 1.5; max-width: 200px; text-align: center;"><span class="edgeLabel"></span></div></foreignObject></g></g><g class="edgeLabel"><g transform="translate(0, 0)" class="label"><foreignObject height="0" width="0"><div class="labelBkg" xmlns="http://www.w3.org/1999/xhtml" style="display: table-cell; white-space: nowrap; line-height: 1.5; max-width: 200px; text-align: center;"><span class="edgeLabel"></span></div></foreignObject></g></g><g class="edgeLabel"><g transform="translate(0, 0)" class="label"><foreignObject height="0" width="0"><div class="labelBkg" xmlns="http://www.w3.org/1999/xhtml" style="display: table-cell; white-space: nowrap; line-height: 1.5; max-width: 200px; text-align: center;"><span class="edgeLabel"></span></div></foreignObject></g></g><g class="edgeLabel"><g transform="translate(0, 0)" class="label"><foreignObject height="0" width="0"><div class="labelBkg" xmlns="http://www.w3.org/1999/xhtml" style="display: table-cell; white-space: nowrap; line-height: 1.5; max-width: 200px; text-align: center;"><span class="edgeLabel"></span></div></foreignObject></g></g><g class="edgeLabel"><g transform="translate(0, 0)" class="label"><foreignObject height="0" width="0"><div class="labelBkg" xmlns="http://www.w3.org/1999/xhtml" style="display: table-cell; white-space: nowrap; line-height: 1.5; max-width: 200px; text-align: center;"><span class="edgeLabel"></span></div></foreignObject></g></g><g class="edgeLabel"><g transform="translate(0, 0)" class="label"><foreignObject height="0" width="0"><div class="labelBkg" xmlns="http://www.w3.org/1999/xhtml" style="display: table-cell; white-space: nowrap; line-height: 1.5; max-width: 200px; text-align: center;"><span class="edgeLabel"></span></div></foreignObject></g></g><g class="edgeLabel"><g transform="translate(0, 0)" class="label"><foreignObject height="0" width="0"><div class="labelBkg" xmlns="http://www.w3.org/1999/xhtml" style="display: table-cell; white-space: nowrap; line-height: 1.5; max-width: 200px; text-align: center;"><span class="edgeLabel"></span></div></foreignObject></g></g><g class="edgeLabel"><g transform="translate(0, 0)" class="label"><foreignObject height="0" width="0"><div class="labelBkg" xmlns="http://www.w3.org/1999/xhtml" style="display: table-cell; white-space: nowrap; line-height: 1.5; max-width: 200px; text-align: center;"><span class="edgeLabel"></span></div></foreignObject></g></g><g class="edgeLabel"><g transform="translate(0, 0)" class="label"><foreignObject height="0" width="0"><div class="labelBkg" xmlns="http://www.w3.org/1999/xhtml" style="display: table-cell; white-space: nowrap; line-height: 1.5; max-width: 200px; text-align: center;"><span class="edgeLabel"></span></div></foreignObject></g></g><g class="edgeLabel"><g transform="translate(0, 0)" class="label"><foreignObject height="0" width="0"><div class="labelBkg" xmlns="http://www.w3.org/1999/xhtml" style="display: table-cell; white-space: nowrap; line-height: 1.5; max-width: 200px; text-align: center;"><span class="edgeLabel"></span></div></foreignObject></g></g><g class="edgeLabel"><g transform="translate(0, 0)" class="label"><foreignObject height="0" width="0"><div class="labelBkg" xmlns="http://www.w3.org/1999/xhtml" style="display: table-cell; white-space: nowrap; line-height: 1.5; max-width: 200px; text-align: center;"><span class="edgeLabel"></span></div></foreignObject></g></g><g class="edgeLabel"><g transform="translate(0, 0)" class="label"><foreignObject height="0" width="0"><div class="labelBkg" xmlns="http://www.w3.org/1999/xhtml" style="display: table-cell; white-space: nowrap; line-height: 1.5; max-width: 200px; text-align: center;"><span class="edgeLabel"></span></div></foreignObject></g></g><g class="edgeLabel"><g transform="translate(0, 0)" class="label"><foreignObject height="0" width="0"><div class="labelBkg" xmlns="http://www.w3.org/1999/xhtml" style="display: table-cell; white-space: nowrap; line-height: 1.5; max-width: 200px; text-align: center;"><span class="edgeLabel"></span></div></foreignObject></g></g><g class="edgeLabel"><g transform="translate(0, 0)" class="label"><foreignObject height="0" width="0"><div class="labelBkg" xmlns="http://www.w3.org/1999/xhtml" style="display: table-cell; white-space: nowrap; line-height: 1.5; max-width: 200px; text-align: center;"><span class="edgeLabel"></span></div></foreignObject></g></g><g class="edgeLabel"><g transform="translate(0, 0)" class="label"><foreignObject height="0" width="0"><div class="labelBkg" xmlns="http://www.w3.org/1999/xhtml" style="display: table-cell; white-space: nowrap; line-height: 1.5; max-width: 200px; text-align: center;"><span class="edgeLabel"></span></div></foreignObject></g></g><g class="edgeLabel"><g transform="translate(0, 0)" class="label"><foreignObject height="0" width="0"><div class="labelBkg" xmlns="http://www.w3.org/1999/xhtml" style="display: table-cell; white-space: nowrap; line-height: 1.5; max-width: 200px; text-align: center;"><span class="edgeLabel"></span></div></foreignObject></g></g><g class="edgeLabel"><g transform="translate(0, 0)" class="label"><foreignObject height="0" width="0"><div class="labelBkg" xmlns="http://www.w3.org/1999/xhtml" style="display: table-cell; white-space: nowrap; line-height: 1.5; max-width: 200px; text-align: center;"><span class="edgeLabel"></span></div></foreignObject></g></g><g class="edgeLabel"><g transform="translate(0, 0)" class="label"><foreignObject height="0" width="0"><div class="labelBkg" xmlns="http://www.w3.org/1999/xhtml" style="display: table-cell; white-space: nowrap; line-height: 1.5; max-width: 200px; text-align: center;"><span class="edgeLabel"></span></div></foreignObject></g></g><g class="edgeLabel"><g transform="translate(0, 0)" class="label"><foreignObject height="0" width="0"><div class="labelBkg" xmlns="http://www.w3.org/1999/xhtml" style="display: table-cell; white-space: nowrap; line-height: 1.5; max-width: 200px; text-align: center;"><span class="edgeLabel"></span></div></foreignObject></g></g><g class="edgeLabel"><g transform="translate(0, 0)" class="label"><foreignObject height="0" width="0"><div class="labelBkg" xmlns="http://www.w3.org/1999/xhtml" style="display: table-cell; white-space: nowrap; line-height: 1.5; max-width: 200px; text-align: center;"><span class="edgeLabel"></span></div></foreignObject></g></g><g class="edgeLabel"><g transform="translate(0, 0)" class="label"><foreignObject height="0" width="0"><div class="labelBkg" xmlns="http://www.w3.org/1999/xhtml" style="display: table-cell; white-space: nowrap; line-height: 1.5; max-width: 200px; text-align: center;"><span class="edgeLabel"></span></div></foreignObject></g></g><g class="edgeLabel"><g transform="translate(0, 0)" class="label"><foreignObject height="0" width="0"><div class="labelBkg" xmlns="http://www.w3.org/1999/xhtml" style="display: table-cell; white-space: nowrap; line-height: 1.5; max-width: 200px; text-align: center;"><span class="edgeLabel"></span></div></foreignObject></g></g><g class="edgeLabel"><g transform="translate(0, 0)" class="label"><foreignObject height="0" width="0"><div class="labelBkg" xmlns="http://www.w3.org/1999/xhtml" style="display: table-cell; white-space: nowrap; line-height: 1.5; max-width: 200px; text-align: center;"><span class="edgeLabel"></span></div></foreignObject></g></g><g transform="translate(735.03125, 1459)" class="edgeLabel"><g transform="translate(-67.03125, -12)" class="label"><foreignObject height="24" width="134.0625"><div class="labelBkg" xmlns="http://www.w3.org/1999/xhtml" style="display: table-cell; white-space: nowrap; line-height: 1.5; max-width: 200px; text-align: center;"><span class="edgeLabel"><p>Failure / Correction</p></span></div></foreignObject></g></g><g class="edgeLabel"><g transform="translate(0, 0)" class="label"><foreignObject height="0" width="0"><div class="labelBkg" xmlns="http://www.w3.org/1999/xhtml" style="display: table-cell; white-space: nowrap; line-height: 1.5; max-width: 200px; text-align: center;"><span class="edgeLabel"></span></div></foreignObject></g></g></g><g class="nodes"><g transform="translate(648, 35)" id="flowchart-U-0" class="node default"><rect height="54" width="93.390625" y="-27" x="-46.6953125" style="" class="basic label-container"></rect><g transform="translate(-16.6953125, -12)" style="" class="label"><rect></rect><foreignObject height="24" width="33.390625"><div xmlns="http://www.w3.org/1999/xhtml" style="display: table-cell; white-space: nowrap; line-height: 1.5; max-width: 200px; text-align: center;"><span class="nodeLabel"><p>User</p></span></div></foreignObject></g></g><g transform="translate(648, 139)" id="flowchart-Q-1" class="node default"><rect height="54" width="233.03125" y="-27" x="-116.515625" style="" class="basic label-container"></rect><g transform="translate(-86.515625, -12)" style="" class="label"><rect></rect><foreignObject height="24" width="173.03125"><div xmlns="http://www.w3.org/1999/xhtml" style="display: table-cell; white-space: nowrap; line-height: 1.5; max-width: 200px; text-align: center;"><span class="nodeLabel"><p>Natural Language Query</p></span></div></foreignObject></g></g><g transform="translate(173, 433)" id="flowchart-KB1-2" class="node default"><rect height="78" width="260" y="-39" x="-130" style="" class="basic label-container"></rect><g transform="translate(-100, -24)" style="" class="label"><rect></rect><foreignObject height="48" width="200"><div xmlns="http://www.w3.org/1999/xhtml" style="display: table; white-space: break-spaces; line-height: 1.5; max-width: 200px; text-align: center; width: 200px;"><span class="nodeLabel"><p>KB v1: Architecture &amp; Claude Patterns</p></span></div></foreignObject></g></g><g transform="translate(483, 433)" id="flowchart-KB2-3" class="node default"><rect height="78" width="260" y="-39" x="-130" style="" class="basic label-container"></rect><g transform="translate(-100, -24)" style="" class="label"><rect></rect><foreignObject height="48" width="200"><div xmlns="http://www.w3.org/1999/xhtml" style="display: table; white-space: break-spaces; line-height: 1.5; max-width: 200px; text-align: center; width: 200px;"><span class="nodeLabel"><p>KB v2: Domain + Schema + Join Keys</p></span></div></foreignObject></g></g><g transform="translate(700.05078125, 1535)" id="flowchart-KB3-4" class="node default"><rect height="78" width="260" y="-39" x="-130" style="" class="basic label-container"></rect><g transform="translate(-100, -24)" style="" class="label"><rect></rect><foreignObject height="48" width="200"><div xmlns="http://www.w3.org/1999/xhtml" style="display: table; white-space: break-spaces; line-height: 1.5; max-width: 200px; text-align: center; width: 200px;"><span class="nodeLabel"><p>KB v3: Corrections &amp; Patterns</p></span></div></foreignObject></g></g><g transform="translate(648, 280)" id="flowchart-CM-5" class="node default"><rect height="78" width="260" y="-39" x="-130" style="" class="basic label-container"></rect><g transform="translate(-100, -24)" style="" class="label"><rect></rect><foreignObject height="48" width="200"><div xmlns="http://www.w3.org/1999/xhtml" style="display: table; white-space: break-spaces; line-height: 1.5; max-width: 200px; text-align: center; width: 200px;"><span class="nodeLabel"><p>Context Manager\n(Claude 3-Layer Memory)</p></span></div></foreignObject></g></g><g transform="translate(1418.25, 433)" id="flowchart-QR-12" class="node default"><rect height="54" width="228.5625" y="-27" x="-114.28125" style="" class="basic label-container"></rect><g transform="translate(-84.28125, -12)" style="" class="label"><rect></rect><foreignObject height="24" width="168.5625"><div xmlns="http://www.w3.org/1999/xhtml" style="display: table-cell; white-space: nowrap; line-height: 1.5; max-width: 200px; text-align: center;"><span class="nodeLabel"><p>Query Router &amp; Planner</p></span></div></foreignObject></g></g><g transform="translate(1418.25, 549)" id="flowchart-Sub-13" class="node default"><rect height="54" width="250.390625" y="-27" x="-125.1953125" style="" class="basic label-container"></rect><g transform="translate(-95.1953125, -12)" style="" class="label"><rect></rect><foreignObject height="24" width="190.390625"><div xmlns="http://www.w3.org/1999/xhtml" style="display: table-cell; white-space: nowrap; line-height: 1.5; max-width: 200px; text-align: center;"><span class="nodeLabel"><p>Spawn Worker Sub-Agents</p></span></div></foreignObject></g></g><g transform="translate(1624.87890625, 703)" id="flowchart-PG-18" class="node default"><rect height="54" width="250.09375" y="-27" x="-125.046875" style="" class="basic label-container"></rect><g transform="translate(-95.046875, -12)" style="" class="label"><rect></rect><foreignObject height="24" width="190.09375"><div xmlns="http://www.w3.org/1999/xhtml" style="display: table-cell; white-space: nowrap; line-height: 1.5; max-width: 200px; text-align: center;"><span class="nodeLabel"><p>PostgreSQL\nSQL Queries</p></span></div></foreignObject></g></g><g transform="translate(1098.76171875, 1230)" id="flowchart-MG-19" class="node default"><rect height="78" width="260" y="-39" x="-130" style="" class="basic label-container"></rect><g transform="translate(-100, -24)" style="" class="label"><rect></rect><foreignObject height="48" width="200"><div xmlns="http://www.w3.org/1999/xhtml" style="display: table; white-space: break-spaces; line-height: 1.5; max-width: 200px; text-align: center; width: 200px;"><span class="nodeLabel"><p>MongoDB\nAggregation Pipelines</p></span></div></foreignObject></g></g><g transform="translate(1397.44921875, 1230)" id="flowchart-SL-20" class="node default"><rect height="54" width="237.375" y="-27" x="-118.6875" style="" class="basic label-container"></rect><g transform="translate(-88.6875, -12)" style="" class="label"><rect></rect><foreignObject height="24" width="177.375"><div xmlns="http://www.w3.org/1999/xhtml" style="display: table-cell; white-space: nowrap; line-height: 1.5; max-width: 200px; text-align: center;"><span class="nodeLabel"><p>SQLite\nLightweight SQL</p></span></div></foreignObject></g></g><g transform="translate(1683.51953125, 1230)" id="flowchart-DD-21" class="node default"><rect height="54" width="234.765625" y="-27" x="-117.3828125" style="" class="basic label-container"></rect><g transform="translate(-87.3828125, -12)" style="" class="label"><rect></rect><foreignObject height="24" width="174.765625"><div xmlns="http://www.w3.org/1999/xhtml" style="display: table-cell; white-space: nowrap; line-height: 1.5; max-width: 200px; text-align: center;"><span class="nodeLabel"><p>DuckDB\nAnalytical SQL</p></span></div></foreignObject></g></g><g transform="translate(2558.09765625, 832)" id="flowchart-FD-27" class="node default"><rect height="54" width="172.234375" y="-27" x="-86.1171875" style="" class="basic label-container"></rect><g transform="translate(-56.1171875, -12)" style="" class="label"><rect></rect><foreignObject height="24" width="112.234375"><div xmlns="http://www.w3.org/1999/xhtml" style="display: table-cell; white-space: nowrap; line-height: 1.5; max-width: 200px; text-align: center;"><span class="nodeLabel"><p>Failure Detector</p></span></div></foreignObject></g></g><g transform="translate(2148.84375, 948)" id="flowchart-JR-28" class="node default"><rect height="78" width="260" y="-39" x="-130" style="" class="basic label-container"></rect><g transform="translate(-100, -24)" style="" class="label"><rect></rect><foreignObject height="48" width="200"><div xmlns="http://www.w3.org/1999/xhtml" style="display: table; white-space: break-spaces; line-height: 1.5; max-width: 200px; text-align: center; width: 200px;"><span class="nodeLabel"><p>Join Key Resolver\n+ Format Fix</p></span></div></foreignObject></g></g><g transform="translate(2450.0859375, 948)" id="flowchart-TE-29" class="node default"><rect height="54" width="242.484375" y="-27" x="-121.2421875" style="" class="basic label-container"></rect><g transform="translate(-91.2421875, -12)" style="" class="label"><rect></rect><foreignObject height="24" width="182.484375"><div xmlns="http://www.w3.org/1999/xhtml" style="display: table-cell; white-space: nowrap; line-height: 1.5; max-width: 200px; text-align: center;"><span class="nodeLabel"><p>Text Extractor\n(Sandbox)</p></span></div></foreignObject></g></g><g transform="translate(2767.76953125, 948)" id="flowchart-RM-30" class="node default"><rect height="54" width="246.53125" y="-27" x="-123.265625" style="" class="basic label-container"></rect><g transform="translate(-93.265625, -12)" style="" class="label"><rect></rect><foreignObject height="24" width="186.53125"><div xmlns="http://www.w3.org/1999/xhtml" style="display: table-cell; white-space: nowrap; line-height: 1.5; max-width: 200px; text-align: center;"><span class="nodeLabel"><p>Result Merger &amp; Validation</p></span></div></foreignObject></g></g><g transform="translate(2288.796875, 1089)" id="flowchart-Retry-31" class="node default"><rect height="54" width="215.1875" y="-27" x="-107.59375" style="" class="basic label-container"></rect><g transform="translate(-77.59375, -12)" style="" class="label"><rect></rect><foreignObject height="24" width="155.1875"><div xmlns="http://www.w3.org/1999/xhtml" style="display: table-cell; white-space: nowrap; line-height: 1.5; max-width: 200px; text-align: center;"><span class="nodeLabel"><p>Retry with Corrections</p></span></div></foreignObject></g></g><g transform="translate(3244.7265625, 1089)" id="flowchart-TL-50" class="node default"><rect height="54" width="153.375" y="-27" x="-76.6875" style="" class="basic label-container"></rect><g transform="translate(-46.6875, -12)" style="" class="label"><rect></rect><foreignObject height="24" width="93.375"><div xmlns="http://www.w3.org/1999/xhtml" style="display: table-cell; white-space: nowrap; line-height: 1.5; max-width: 200px; text-align: center;"><span class="nodeLabel"><p>Trace Logger</p></span></div></foreignObject></g></g><g transform="translate(3105.64453125, 1230)" id="flowchart-SC-51" class="node default"><rect height="54" width="169.21875" y="-27" x="-84.609375" style="" class="basic label-container"></rect><g transform="translate(-54.609375, -12)" style="" class="label"><rect></rect><foreignObject height="24" width="109.21875"><div xmlns="http://www.w3.org/1999/xhtml" style="display: table-cell; white-space: nowrap; line-height: 1.5; max-width: 200px; text-align: center;"><span class="nodeLabel"><p>pass@1 Scorer</p></span></div></foreignObject></g></g><g transform="translate(3330.37890625, 1230)" id="flowchart-RS-52" class="node default"><rect height="54" width="180.25" y="-27" x="-90.125" style="" class="basic label-container"></rect><g transform="translate(-60.125, -12)" style="" class="label"><rect></rect><foreignObject height="24" width="120.25"><div xmlns="http://www.w3.org/1999/xhtml" style="display: table-cell; white-space: nowrap; line-height: 1.5; max-width: 200px; text-align: center;"><span class="nodeLabel"><p>Regression Suite</p></span></div></foreignObject></g></g><g transform="translate(3105.64453125, 1383)" id="flowchart-Output-59" class="node default"><rect height="78" width="260" y="-39" x="-130" style="" class="basic label-container"></rect><g transform="translate(-100, -24)" style="" class="label"><rect></rect><foreignObject height="48" width="200"><div xmlns="http://www.w3.org/1999/xhtml" style="display: table; white-space: break-spaces; line-height: 1.5; max-width: 200px; text-align: center; width: 200px;"><span class="nodeLabel"><p>Final Output\n{answer, query_trace, confidence}</p></span></div></foreignObject></g></g></g></g></g></svg>